<?xml version="1.0" encoding="UTF-8" standalone="no"?>
<!-- Created with Inkscape (http://www.inkscape.org/) -->

<svg
   version="1.1"
   id="svg1"
   width="946.32001"
   height="595.74664"
   viewBox="0 0 946.32001 595.74664"
   sodipodi:docname="Quest_03.eps"
   xmlns:inkscape="http://www.inkscape.org/namespaces/inkscape"
   xmlns:sodipodi="http://sodipodi.sourceforge.net/DTD/sodipodi-0.dtd"
   xmlns="http://www.w3.org/2000/svg"
   xmlns:svg="http://www.w3.org/2000/svg">
  <defs
     id="defs1" />
  <sodipodi:namedview
     id="namedview1"
     pagecolor="#ffffff"
     bordercolor="#000000"
     borderopacity="0.25"
     inkscape:showpageshadow="2"
     inkscape:pageopacity="0.0"
     inkscape:pagecheckerboard="0"
     inkscape:deskcolor="#d1d1d1">
    <inkscape:page
       x="0"
       y="0"
       inkscape:label="1"
       id="page1"
       width="946.32001"
       height="595.74664"
       margin="0"
       bleed="0" />
  </sodipodi:namedview>
  <g
     id="g1"
     inkscape:groupmode="layer"
     inkscape:label="1">
    <g
       id="group-R5">
      <path
         id="path2"
         d="m 1135.46,2586.62 c 332.95,-124.91 728.51,-140.42 1255,216.95 304.37,206.59 495.52,484.04 646.67,758.74"
         style="fill:none;stroke:#211d1d;stroke-width:10;stroke-linecap:butt;stroke-linejoin:miter;stroke-miterlimit:10;stroke-dasharray:none;stroke-opacity:1"
         transform="matrix(0.13333333,0,0,-0.13333333,0,595.74667)" />
      <path
         id="path3"
         d="m 2016.57,2376.07 c 118.34,-140.56 -168.61,-175 -341.11,-220 -133.52,-34.84 -377.5,-52.5 -393.33,-251.67 -14.8,-186.13 115,-228.31 115,-228.31"
         style="fill:none;stroke:#211d1d;stroke-width:10;stroke-linecap:butt;stroke-linejoin:miter;stroke-miterlimit:10;stroke-dasharray:none;stroke-opacity:1"
         transform="matrix(0.13333333,0,0,-0.13333333,0,595.74667)" />
      <path
         id="path4"
         d="m 2426.54,2732.33 c -72.18,-143.98 -150.99,-250.97 -246.77,-295.12 -172.52,-79.5 -462.8,-152.32 -959.31,-229.48 -267.839,-41.62 -219.52,-358.39 -85.55,-447.78 128.89,-85.99 346.66,-111.11 595.55,-71.11 248.89,40 248.89,186.67 248.89,186.67 0,0 33.89,272.22 56.11,392.22 2.54,12.19 4.95,23.36 7.28,33.6"
         style="fill:none;stroke:#211d1d;stroke-width:10;stroke-linecap:butt;stroke-linejoin:miter;stroke-miterlimit:10;stroke-dasharray:none;stroke-opacity:1"
         transform="matrix(0.13333333,0,0,-0.13333333,0,595.74667)" />
      <path
         id="path5"
         d="M 1487.83,4061.37 C 1266.86,3910.55 1052.81,3711.8 868.238,3456.2 l -22.218,-34.02 c 0,0 -124.5,-203.29 -195.555,-462.23 C 388.238,2004.4 -531.41,490.93 441.574,66.6211 1032.68,-191.16 1380.28,407.469 1618.52,978.27 c 166.32,398.46 271.94,766.13 271.94,766.13"
         style="fill:none;stroke:#211d1d;stroke-width:10;stroke-linecap:butt;stroke-linejoin:miter;stroke-miterlimit:10;stroke-dasharray:none;stroke-opacity:1"
         transform="matrix(0.13333333,0,0,-0.13333333,0,595.74667)" />
      <path
         id="path6"
         d="m 2148.8,2423.56 c 43.33,13.66 594.16,148.34 667.1,175.36 34.01,12.6 69.12,22.82 93.25,49.89 19.95,22.38 41.15,55.11 56.87,102.26 40,120 244.97,725.1 253.33,777.77 27.2,171.39 27.33,373.41 22.22,417.78 -8.89,77.22 -13.33,346.67 -244.44,457.78 -208.23,105.5 -717.36,82.66 -1238.68,-182.65"
         style="fill:none;stroke:#211d1d;stroke-width:10;stroke-linecap:butt;stroke-linejoin:miter;stroke-miterlimit:10;stroke-dasharray:none;stroke-opacity:1"
         transform="matrix(0.13333333,0,0,-0.13333333,0,595.74667)" />
      <path
         id="path7"
         d="m 3224.29,3544.66 c 0,0 70.14,-484.17 66.33,-540.26 -5,-73.61 -71.36,-113.33 -306.76,-200.83"
         style="fill:none;stroke:#211d1d;stroke-width:10;stroke-linecap:butt;stroke-linejoin:miter;stroke-miterlimit:10;stroke-dasharray:none;stroke-opacity:1"
         transform="matrix(0.13333333,0,0,-0.13333333,0,595.74667)" />
      <path
         id="path8"
         d="m 1872,4015.34 c 56.53,14.74 99.22,10.59 114.82,-14.68 27.16,-44 -43.22,-136.69 -157.19,-207.03 -113.97,-70.34 -228.38,-91.7 -255.53,-47.7 -15.21,24.65 1.85,67.32 38.37,110.04"
         style="fill:none;stroke:#211d1d;stroke-width:10;stroke-linecap:butt;stroke-linejoin:miter;stroke-miterlimit:10;stroke-dasharray:none;stroke-opacity:1"
         transform="matrix(0.13333333,0,0,-0.13333333,0,595.74667)" />
      <path
         id="path9"
         d="m 1878.8,4015.71 c 24.65,-39.94 -14.47,-108.82 -87.39,-153.82 -72.92,-45 -152.02,-49.1 -176.68,-9.16"
         style="fill:none;stroke:#211d1d;stroke-width:10;stroke-linecap:butt;stroke-linejoin:miter;stroke-miterlimit:10;stroke-dasharray:none;stroke-opacity:1"
         transform="matrix(0.13333333,0,0,-0.13333333,0,595.74667)" />
      <path
         id="path10"
         d="m 1893.79,4171.48 c 44.41,-71.96 -15.14,-189.28 -133.03,-262.04 -117.88,-72.76 -249.45,-73.4 -293.86,-1.43 -44.42,71.96 15.14,189.28 133.02,262.04 117.88,72.75 249.45,73.4 293.87,1.43 z"
         style="fill:none;stroke:#211d1d;stroke-width:10;stroke-linecap:butt;stroke-linejoin:miter;stroke-miterlimit:10;stroke-dasharray:none;stroke-opacity:1"
         transform="matrix(0.13333333,0,0,-0.13333333,0,595.74667)" />
      <path
         id="path11"
         d="m 1806.69,4196.79 c 25.1,-40.68 -26.82,-118.28 -115.99,-173.31 -89.16,-55.03 -181.8,-66.66 -206.9,-25.98 -25.11,40.68 26.81,118.27 115.98,173.3 89.16,55.04 181.8,66.67 206.91,25.99 z"
         style="fill:none;stroke:#211d1d;stroke-width:10;stroke-linecap:butt;stroke-linejoin:miter;stroke-miterlimit:10;stroke-dasharray:none;stroke-opacity:1"
         transform="matrix(0.13333333,0,0,-0.13333333,0,595.74667)" />
      <path
         id="path12"
         d="m 2326.95,3820.32 c 34.67,-56.17 -13.75,-148.93 -108.15,-207.19 -94.4,-58.27 -199.02,-59.96 -233.69,-3.79 -34.67,56.18 13.75,148.94 108.14,207.2 94.4,58.26 199.03,59.96 233.7,3.78"
         style="fill:#211d1d;fill-opacity:1;fill-rule:nonzero;stroke:none"
         transform="matrix(0.13333333,0,0,-0.13333333,0,595.74667)" />
      <path
         id="path13"
         d="m 1717.1,3533.37 c 35.95,-58.24 -7.55,-150.28 -97.14,-205.57 -89.59,-55.3 -191.36,-52.91 -227.3,5.32 -35.95,58.24 7.54,150.28 97.13,205.58 89.6,55.29 191.37,52.91 227.31,-5.33"
         style="fill:#211d1d;fill-opacity:1;fill-rule:nonzero;stroke:none"
         transform="matrix(0.13333333,0,0,-0.13333333,0,595.74667)" />
      <path
         id="path14"
         d="m 1290.65,3564.73 c 23.84,-38.63 -21.77,-110.02 -101.88,-159.46 -80.11,-49.44 -164.37,-58.21 -188.21,-19.59 -23.841,38.63 21.77,110.02 101.88,159.46 80.11,49.44 164.37,58.21 188.21,19.59"
         style="fill:#211d1d;fill-opacity:1;fill-rule:nonzero;stroke:none"
         transform="matrix(0.13333333,0,0,-0.13333333,0,595.74667)" />
      <path
         id="path15"
         d="m 5223.48,4015.34 c -56.54,14.74 -99.23,10.59 -114.82,-14.68 -27.16,-44 43.22,-136.69 157.19,-207.03 113.97,-70.34 228.37,-91.7 255.53,-47.7 15.21,24.65 -1.86,67.32 -38.37,110.04"
         style="fill:none;stroke:#211d1d;stroke-width:10;stroke-linecap:butt;stroke-linejoin:miter;stroke-miterlimit:10;stroke-dasharray:none;stroke-opacity:1"
         transform="matrix(0.13333333,0,0,-0.13333333,0,595.74667)" />
      <path
         id="path16"
         d="m 5216.68,4015.71 c -24.66,-39.94 14.47,-108.82 87.39,-153.82 72.92,-45 152.02,-49.1 176.67,-9.16"
         style="fill:none;stroke:#211d1d;stroke-width:10;stroke-linecap:butt;stroke-linejoin:miter;stroke-miterlimit:10;stroke-dasharray:none;stroke-opacity:1"
         transform="matrix(0.13333333,0,0,-0.13333333,0,595.74667)" />
      <path
         id="path17"
         d="m 5201.69,4171.48 c -44.42,-71.96 15.14,-189.28 133.02,-262.04 117.88,-72.76 249.45,-73.4 293.87,-1.43 44.42,71.96 -15.14,189.28 -133.02,262.04 -117.89,72.75 -249.46,73.4 -293.87,1.43 z"
         style="fill:none;stroke:#211d1d;stroke-width:10;stroke-linecap:butt;stroke-linejoin:miter;stroke-miterlimit:10;stroke-dasharray:none;stroke-opacity:1"
         transform="matrix(0.13333333,0,0,-0.13333333,0,595.74667)" />
      <path
         id="path18"
         d="m 5288.79,4196.79 c -25.11,-40.68 26.82,-118.28 115.98,-173.31 89.17,-55.03 181.8,-66.66 206.91,-25.98 25.11,40.68 -26.82,118.27 -115.98,173.3 -89.17,55.04 -181.8,66.67 -206.91,25.99 z"
         style="fill:none;stroke:#211d1d;stroke-width:10;stroke-linecap:butt;stroke-linejoin:miter;stroke-miterlimit:10;stroke-dasharray:none;stroke-opacity:1"
         transform="matrix(0.13333333,0,0,-0.13333333,0,595.74667)" />
      <path
         id="path19"
         d="m 4768.53,3820.32 c -34.67,-56.17 13.75,-148.93 108.15,-207.19 94.39,-58.27 199.02,-59.96 233.69,-3.79 34.67,56.18 -13.75,148.94 -108.15,207.2 -94.39,58.26 -199.02,59.96 -233.69,3.78"
         style="fill:#211d1d;fill-opacity:1;fill-rule:nonzero;stroke:none"
         transform="matrix(0.13333333,0,0,-0.13333333,0,595.74667)" />
      <path
         id="path20"
         d="m 5378.38,3533.37 c -35.95,-58.24 7.54,-150.28 97.13,-205.57 89.6,-55.3 191.37,-52.91 227.31,5.32 35.94,58.24 -7.55,150.28 -97.14,205.58 -89.59,55.29 -191.36,52.91 -227.3,-5.33"
         style="fill:#211d1d;fill-opacity:1;fill-rule:nonzero;stroke:none"
         transform="matrix(0.13333333,0,0,-0.13333333,0,595.74667)" />
      <path
         id="path21"
         d="m 5804.82,3564.73 c -23.83,-38.63 21.78,-110.02 101.89,-159.46 80.11,-49.44 164.37,-58.21 188.21,-19.59 23.84,38.63 -21.78,110.02 -101.88,159.46 -80.11,49.44 -164.38,58.21 -188.22,19.59"
         style="fill:#211d1d;fill-opacity:1;fill-rule:nonzero;stroke:none"
         transform="matrix(0.13333333,0,0,-0.13333333,0,595.74667)" />
      <path
         id="path22"
         d="m 3164.5,4247.93 c 21.11,-41.7 92.4,-423.24 -111.13,-805.61 -222.01,-417.11 -623.32,-709.37 -623.32,-709.37 0,0 -294.01,-241.13 -749.71,-288.55 -455.69,-47.42 -776.543,155.55 -776.543,155.55 0,0 -373.332,203.62 -123.449,699.46"
         style="fill:none;stroke:#211d1d;stroke-width:10;stroke-linecap:butt;stroke-linejoin:miter;stroke-miterlimit:10;stroke-dasharray:none;stroke-opacity:1"
         transform="matrix(0.13333333,0,0,-0.13333333,0,595.74667)" />
      <path
         id="path23"
         d="m 180.676,249.789 c 0,0 -175.676,194.609 -63.016,747.941 97.293,477.87 649.762,1734.6 649.762,1734.6"
         style="fill:none;stroke:#211d1d;stroke-width:10;stroke-linecap:butt;stroke-linejoin:miter;stroke-miterlimit:10;stroke-dasharray:none;stroke-opacity:1"
         transform="matrix(0.13333333,0,0,-0.13333333,0,595.74667)" />
      <path
         id="path24"
         d="m 5961.91,2586.62 c -332.95,-124.91 -728.51,-140.42 -1255,216.95 -304.36,206.59 -495.51,484.04 -646.66,758.74"
         style="fill:none;stroke:#211d1d;stroke-width:10;stroke-linecap:butt;stroke-linejoin:miter;stroke-miterlimit:10;stroke-dasharray:none;stroke-opacity:1"
         transform="matrix(0.13333333,0,0,-0.13333333,0,595.74667)" />
      <path
         id="path25"
         d="m 5080.8,2376.07 c -118.33,-140.56 168.61,-175 341.11,-220 133.53,-34.84 377.5,-52.5 393.34,-251.67 14.79,-186.13 -115,-228.31 -115,-228.31"
         style="fill:none;stroke:#211d1d;stroke-width:10;stroke-linecap:butt;stroke-linejoin:miter;stroke-miterlimit:10;stroke-dasharray:none;stroke-opacity:1"
         transform="matrix(0.13333333,0,0,-0.13333333,0,595.74667)" />
      <path
         id="path26"
         d="m 4670.84,2732.33 c 72.18,-143.98 150.99,-250.97 246.77,-295.12 172.51,-79.5 462.79,-152.32 959.3,-229.48 267.85,-41.62 219.52,-358.39 85.56,-447.78 -128.89,-85.99 -346.67,-111.11 -595.56,-71.11 -248.89,40 -248.89,186.67 -248.89,186.67 0,0 -33.88,272.22 -56.11,392.22 -2.54,12.19 -4.94,23.36 -7.27,33.6"
         style="fill:none;stroke:#211d1d;stroke-width:10;stroke-linecap:butt;stroke-linejoin:miter;stroke-miterlimit:10;stroke-dasharray:none;stroke-opacity:1"
         transform="matrix(0.13333333,0,0,-0.13333333,0,595.74667)" />
      <path
         id="path27"
         d="m 5609.55,4061.37 c 220.96,-150.82 435.01,-349.57 619.59,-605.17 l 22.22,-34.02 c 0,0 124.5,-203.29 195.55,-462.23 C 6709.14,2004.4 7628.79,490.93 6655.8,66.6211 6064.69,-191.16 5717.1,407.469 5478.85,978.27 5312.54,1376.73 5206.91,1744.4 5206.91,1744.4"
         style="fill:none;stroke:#211d1d;stroke-width:10;stroke-linecap:butt;stroke-linejoin:miter;stroke-miterlimit:10;stroke-dasharray:none;stroke-opacity:1"
         transform="matrix(0.13333333,0,0,-0.13333333,0,595.74667)" />
      <path
         id="path28"
         d="m 4948.58,2423.56 c -43.33,13.66 -594.17,148.34 -667.11,175.36 -34,12.6 -69.11,22.82 -93.24,49.89 -19.96,22.38 -41.16,55.11 -56.87,102.26 -40,120 -244.98,725.1 -253.34,777.77 -27.2,171.39 -27.33,373.41 -22.22,417.78 8.89,77.22 13.34,346.67 244.45,457.78 208.22,105.5 717.36,82.66 1238.68,-182.65"
         style="fill:none;stroke:#211d1d;stroke-width:10;stroke-linecap:butt;stroke-linejoin:miter;stroke-miterlimit:10;stroke-dasharray:none;stroke-opacity:1"
         transform="matrix(0.13333333,0,0,-0.13333333,0,595.74667)" />
      <path
         id="path29"
         d="m 3873.09,3544.66 c 0,0 -70.15,-484.17 -66.34,-540.26 5,-73.61 71.36,-113.33 306.76,-200.83"
         style="fill:none;stroke:#211d1d;stroke-width:10;stroke-linecap:butt;stroke-linejoin:miter;stroke-miterlimit:10;stroke-dasharray:none;stroke-opacity:1"
         transform="matrix(0.13333333,0,0,-0.13333333,0,595.74667)" />
      <path
         id="path30"
         d="m 3932.88,4247.93 c -21.12,-41.7 -92.4,-423.24 111.13,-805.61 222.01,-417.11 623.32,-709.37 623.32,-709.37 0,0 294.01,-241.13 749.7,-288.55 455.7,-47.42 776.55,155.55 776.55,155.55 0,0 373.33,203.62 123.45,699.46"
         style="fill:none;stroke:#211d1d;stroke-width:10;stroke-linecap:butt;stroke-linejoin:miter;stroke-miterlimit:10;stroke-dasharray:none;stroke-opacity:1"
         transform="matrix(0.13333333,0,0,-0.13333333,0,595.74667)" />
      <path
         id="path31"
         d="m 6916.7,249.789 c 0,0 175.68,194.609 63.02,747.941 -97.3,477.87 -649.77,1734.6 -649.77,1734.6"
         style="fill:none;stroke:#211d1d;stroke-width:10;stroke-linecap:butt;stroke-linejoin:miter;stroke-miterlimit:10;stroke-dasharray:none;stroke-opacity:1"
         transform="matrix(0.13333333,0,0,-0.13333333,0,595.74667)" />
      <path
         id="path32"
         d="m 6046.28,3433.23 c -2.25,-0.8 -11.1,-1.34 -28.3,10.56 -17.21,11.9 -56.12,40.85 -56.12,40.85 0,0 -2.17,18.49 11.09,17.68 13.35,-0.8 28.62,-10.77 53.23,-34.57 27.4,-26.5 22.35,-33.72 20.1,-34.52 z m -106.62,1.4 c -5.78,-1.77 -18.8,1.12 -32.64,22.35 -14.47,22.19 -12.86,38.75 -7.4,42.93 5.47,4.18 15,0.9 18.66,-0.96 8.84,-4.5 27.33,-18.17 27.33,-18.17 0,0 -0.16,-26.21 0,-28.3 0.17,-2.09 -0.16,-16.08 -5.95,-17.85 z m 118.2,15.11 c -7.88,9.33 -59.66,68.02 -94.4,64.81 -16.56,-0.81 -16.72,-19.46 -16.72,-19.46 0,0 -40.2,30.55 -61.27,23.16 -21.06,-7.4 -5.78,-48.25 2.58,-59.34 8.36,-11.1 35.28,-50.26 69.14,-40.69 15.92,4.51 4.53,49.85 4.53,49.85 0,0 52.08,-40.2 73.3,-47.11 21.23,-6.92 27.5,-3.86 31.36,-0.48 3.86,3.37 -0.64,19.94 -8.52,29.26"
         style="fill:#ffffff;fill-opacity:1;fill-rule:nonzero;stroke:none"
         transform="matrix(0.13333333,0,0,-0.13333333,0,595.74667)" />
      <path
         id="path33"
         d="m 1501.57,3528.84 53.31,-114.44"
         style="fill:none;stroke:#ffffff;stroke-width:20;stroke-linecap:butt;stroke-linejoin:miter;stroke-miterlimit:10;stroke-dasharray:none;stroke-opacity:1"
         transform="matrix(0.13333333,0,0,-0.13333333,0,595.74667)" />
      <path
         id="path34"
         d="m 1613.8,3552.18 c 0,0 -120,-87.78 -186.67,-148.89"
         style="fill:none;stroke:#ffffff;stroke-width:20;stroke-linecap:butt;stroke-linejoin:miter;stroke-miterlimit:10;stroke-dasharray:none;stroke-opacity:1"
         transform="matrix(0.13333333,0,0,-0.13333333,0,595.74667)" />
      <path
         id="path35"
         d="m 2101.57,3808.84 4.51,-84.17"
         style="fill:none;stroke:#ffffff;stroke-width:20;stroke-linecap:butt;stroke-linejoin:miter;stroke-miterlimit:10;stroke-dasharray:none;stroke-opacity:1"
         transform="matrix(0.13333333,0,0,-0.13333333,0,595.74667)" />
      <path
         id="path36"
         d="m 2227.13,3833.29 c 0,0 -92.78,-59.45 -155.56,-154.45"
         style="fill:none;stroke:#ffffff;stroke-width:20;stroke-linecap:butt;stroke-linejoin:miter;stroke-miterlimit:10;stroke-dasharray:none;stroke-opacity:1"
         transform="matrix(0.13333333,0,0,-0.13333333,0,595.74667)" />
      <path
         id="path37"
         d="m 1083.38,3512.32 h 155.83"
         style="fill:none;stroke:#ffffff;stroke-width:20;stroke-linecap:butt;stroke-linejoin:miter;stroke-miterlimit:10;stroke-dasharray:none;stroke-opacity:1"
         transform="matrix(0.13333333,0,0,-0.13333333,0,595.74667)" />
      <path
         id="path38"
         d="m 1060.88,3475.2 h 149.17"
         style="fill:none;stroke:#ffffff;stroke-width:20;stroke-linecap:butt;stroke-linejoin:miter;stroke-miterlimit:10;stroke-dasharray:none;stroke-opacity:1"
         transform="matrix(0.13333333,0,0,-0.13333333,0,595.74667)" />
      <path
         id="path39"
         d="m 1034.63,3442.32 h 157.08"
         style="fill:none;stroke:#ffffff;stroke-width:20;stroke-linecap:butt;stroke-linejoin:miter;stroke-miterlimit:10;stroke-dasharray:none;stroke-opacity:1"
         transform="matrix(0.13333333,0,0,-0.13333333,0,595.74667)" />
      <path
         id="path40"
         d="m 4939.57,3756.03 c 0,0 28.35,2.27 75,0.42 42.08,-1.67 90.06,-75.38 9.16,-78.34 -24.2,-1.19 -47.13,-1.22 -52.5,10 -36.53,60.87 -76.66,128.34 -76.66,128.34 0,0 50.83,0.41 72.5,-4.59 21.66,-5 62.5,-26.25 42.5,-51.25"
         style="fill:none;stroke:#ffffff;stroke-width:20;stroke-linecap:round;stroke-linejoin:round;stroke-miterlimit:10;stroke-dasharray:none;stroke-opacity:1"
         transform="matrix(0.13333333,0,0,-0.13333333,0,595.74667)" />
      <path
         id="path41"
         d="m 5556.3,3400.23 c 0,0 -5.39,94.13 -14.17,137.5"
         style="fill:none;stroke:#ffffff;stroke-width:20;stroke-linecap:butt;stroke-linejoin:miter;stroke-miterlimit:10;stroke-dasharray:none;stroke-opacity:1"
         transform="matrix(0.13333333,0,0,-0.13333333,0,595.74667)" />
      <path
         id="path42"
         d="m 5696.3,3392.73 c 0,0 -63.75,93.89 -149.17,138.06"
         style="fill:none;stroke:#ffffff;stroke-width:20;stroke-linecap:butt;stroke-linejoin:miter;stroke-miterlimit:10;stroke-dasharray:none;stroke-opacity:1"
         transform="matrix(0.13333333,0,0,-0.13333333,0,595.74667)" />
      <path
         id="path43"
         d="m 5556.3,3451.07 c 0,0 37.91,3.49 88.47,0.85"
         style="fill:none;stroke:#ffffff;stroke-width:20;stroke-linecap:butt;stroke-linejoin:miter;stroke-miterlimit:10;stroke-dasharray:none;stroke-opacity:1"
         transform="matrix(0.13333333,0,0,-0.13333333,0,595.74667)" />
    </g>
  </g>
</svg>
